<?xml version="1.0" encoding="utf-8"?>
<!-- Generator: Adobe Illustrator 27.8.0, SVG Export Plug-In . SVG Version: 6.00 Build 0)  -->
<svg version="1.1" id="Ebene_1" xmlns="http://www.w3.org/2000/svg" xmlns:xlink="http://www.w3.org/1999/xlink" x="0px" y="0px"
	 viewBox="0 0 1080 1080" style="enable-background:new 0 0 1080 1080;" xml:space="preserve">
<path d="M694.67,540.04c-48.31,14.71-137.55,42.65-150.2,92.29c-16.02-48.36-101.41-78.61-151.24-91.66
	c47.91-14.09,135.82-41.72,150-92.09C557.9,496.41,645.48,527.21,694.67,540.04z"/>
<g>
	<path d="M811.04,564.57c-43.56,18.27-87.43,36.69-131.32,55.05c-19.95,8.35-40.03,16.39-59.91,24.89
		c-45.8,19.57-93.5,24.13-139.78,6.83c-70.8-26.46-140.01-57.17-210.48-86.32c0-8.19,0-15.97,0-24.57H158.51
		c0,33.05,0,65.74,0,98.59c88.79,36.95,176.68,74.11,265.04,110.11c75.9,30.92,152.72,31.35,229.12,1.65
		c43.28-16.82,85.93-35.25,128.79-53.13c46.87-19.54,93.67-39.27,140.33-58.85c0-33.15,0-65.83,0-98.37H811.04
		C811.04,548.38,811.04,556.12,811.04,564.57z"/>
	<path d="M269.26,516.34c43.56-18.27,87.43-36.69,131.32-55.05c19.95-8.35,40.03-16.39,59.91-24.89
		c45.8-19.57,93.5-24.13,139.78-6.83c70.8,26.46,140.01,57.17,210.48,86.32c0,8.19,0,15.97,0,24.57h111.03c0-33.05,0-65.74,0-98.59
		C833,404.92,745.11,367.76,656.74,331.76c-75.9-30.92-152.72-31.35-229.12-1.65c-43.28,16.82-85.93,35.25-128.79,53.13
		c-46.87,19.54-93.67,39.27-140.33,58.85c0,33.15,0,65.83,0,98.37h110.75C269.26,532.53,269.26,524.8,269.26,516.34z"/>
</g>
</svg>
